<svg xmlns="http://www.w3.org/2000/svg" width="900" height="420" viewBox="0 0 900 420">
  <rect width="900" height="420" fill="#111827"/>
  <g fill="#f9fafb">
    <text x="60" y="45" font-size="24" font-family="Arial, sans-serif">Before vs After</text>
    <text x="60" y="78" font-size="14" font-family="Arial, sans-serif">Illustrative comparison of a typical guided review workflow</text>
  </g>
  <g stroke="#374151" stroke-width="1">
    <line x1="120" y1="330" x2="810" y2="330"/>
    <line x1="120" y1="330" x2="120" y2="120"/>
  </g>
  <g font-family="Arial, sans-serif" font-size="13" fill="#d1d5db">
    <text x="78" y="332">0</text>
    <text x="75" y="270">25</text>
    <text x="75" y="210">50</text>
    <text x="75" y="150">75</text>
    <text x="75" y="120">100</text>
  </g>
  <g>
    <rect x="180" y="250" width="110" height="80" fill="#ef4444"/>
    <rect x="320" y="205" width="110" height="125" fill="#3b82f6"/>
    <rect x="460" y="210" width="110" height="120" fill="#f59e0b"/>
    <rect x="600" y="175" width="110" height="155" fill="#10b981"/>
  </g>
  <g font-family="Arial, sans-serif" font-size="14" fill="#f9fafb">
    <text x="185" y="362">Baseline</text>
    <text x="325" y="362">Diff size</text>
    <text x="465" y="362">Hotspots</text>
    <text x="605" y="362">Readability</text>
  </g>
  <g font-family="Arial, sans-serif" font-size="13" fill="#e5e7eb">
    <text x="190" y="244">High</text>
    <text x="330" y="199">Smaller</text>
    <text x="470" y="204">Lower</text>
    <text x="610" y="169">Higher</text>
  </g>
  <g font-family="Arial, sans-serif" font-size="12" fill="#93c5fd">
    <text x="190" y="292">Before</text>
    <text x="330" y="292">Before</text>
    <text x="470" y="292">Before</text>
    <text x="610" y="292">After</text>
  </g>
</svg>